<svg aria-hidden="true" style="position: absolute; width: 0; height: 0; overflow: hidden;" version="1.1" xmlns="http://www.w3.org/2000/svg" xmlns:xlink="http://www.w3.org/1999/xlink">
<defs>
<symbol id="icon-quote-up" viewBox="0 0 32 32">
<path d="M10.787 15.507h-6.253c0.107-6.227 1.333-7.253 5.16-9.52 0.44-0.267 0.587-0.827 0.32-1.28-0.253-0.44-0.827-0.587-1.267-0.32-4.507 2.667-6.080 4.293-6.080 12.040v7.187c0 2.28 1.853 4.12 4.12 4.12h4c2.347 0 4.12-1.773 4.12-4.12v-4c0-2.333-1.773-4.107-4.12-4.107z"></path>
<path d="M25.213 15.507h-6.253c0.107-6.227 1.333-7.253 5.16-9.52 0.44-0.267 0.587-0.827 0.32-1.28-0.267-0.44-0.827-0.587-1.28-0.32-4.507 2.667-6.080 4.293-6.080 12.053v7.187c0 2.28 1.853 4.12 4.12 4.12h4c2.347 0 4.12-1.773 4.12-4.12v-4c0.013-2.347-1.76-4.12-4.107-4.12z"></path>
</symbol>
<symbol id="icon-Vector-2" viewBox="0 0 28 32">
<path stroke-linejoin="round" stroke-linecap="round" stroke-miterlimit="4" stroke-width="1.8824" d="M26.846 13.64c-0.633 2.884-4.784 8.018-3.8 17.303M20.376 8.692c-5.045 3.090-15.708 10.959-17.997 17.711M18.97 1.33c-2.563-0.563-9.716-0.723-17.819 3.14"></path>
</symbol>
<symbol id="icon-Vector-1" viewBox="0 0 32 32">
<path stroke-linejoin="round" stroke-linecap="round" stroke-miterlimit="4" stroke-width="3.8788" d="M2.662 19.394c0-2.909 2.909-8.727 0-17.455M9.935 22.788c4.202-4.040 12.8-13.867 13.576-20.849M12.844 29.576c2.586 0 9.503-1.358 16.485-6.788"></path>
</symbol>
<symbol id="icon-star" viewBox="0 0 32 32">
<path d="M23.891 19.093c-0.345 0.335-0.504 0.819-0.425 1.293l1.185 6.56c0.1 0.556-0.135 1.119-0.6 1.44-0.456 0.333-1.063 0.373-1.56 0.107l-5.905-3.080c-0.205-0.109-0.433-0.168-0.667-0.175h-0.361c-0.125 0.019-0.248 0.059-0.36 0.12l-5.907 3.095c-0.292 0.147-0.623 0.199-0.947 0.147-0.789-0.149-1.316-0.901-1.187-1.695l1.187-6.56c0.079-0.479-0.080-0.965-0.425-1.305l-4.815-4.667c-0.403-0.391-0.543-0.977-0.359-1.507 0.179-0.528 0.635-0.913 1.185-1l6.627-0.961c0.504-0.052 0.947-0.359 1.173-0.812l2.92-5.987c0.069-0.133 0.159-0.256 0.267-0.36l0.12-0.093c0.063-0.069 0.135-0.127 0.215-0.173l0.145-0.053 0.227-0.093h0.561c0.501 0.052 0.943 0.352 1.173 0.8l2.959 5.96c0.213 0.436 0.628 0.739 1.107 0.812l6.627 0.961c0.56 0.080 1.028 0.467 1.213 1 0.175 0.535 0.024 1.121-0.387 1.507l-4.987 4.72z"></path>
</symbol>
<symbol id="icon-light" viewBox="0 0 32 32">
<path d="M5.333 14.667c-0.736 0-1.333 0.597-1.333 1.333s0.597 1.333 1.333 1.333h18.781l-6.39 6.39c-0.521 0.521-0.521 1.365 0 1.886s1.365 0.521 1.886 0l7.724-7.724c1.041-1.041 1.041-2.73 0-3.771l-7.724-7.724c-0.521-0.521-1.365-0.521-1.886 0s-0.521 1.365 0 1.886l6.39 6.39h-18.781z"></path>
</symbol>
</defs>
</svg>
